{
	"patcher" : 	{
		"fileversion" : 1,
		"appversion" : 		{
			"major" : 8,
			"minor" : 6,
			"revision" : 2,
			"architecture" : "x64",
			"modernui" : 1
		}
,
		"classnamespace" : "dsp.gen",
		"rect" : [ 34.0, 77.0, 1213.0, 642.0 ],
		"bglocked" : 0,
		"openinpresentation" : 0,
		"default_fontsize" : 12.0,
		"default_fontface" : 0,
		"default_fontname" : "Arial",
		"gridonopen" : 1,
		"gridsize" : [ 15.0, 15.0 ],
		"gridsnaponopen" : 1,
		"objectsnaponopen" : 1,
		"statusbarvisible" : 2,
		"toolbarvisible" : 1,
		"lefttoolbarpinned" : 0,
		"toptoolbarpinned" : 0,
		"righttoolbarpinned" : 0,
		"bottomtoolbarpinned" : 0,
		"toolbars_unpinned_last_save" : 0,
		"tallnewobj" : 0,
		"boxanimatetime" : 200,
		"enablehscroll" : 1,
		"enablevscroll" : 1,
		"devicewidth" : 0.0,
		"description" : "",
		"digest" : "",
		"tags" : "",
		"style" : "",
		"subpatcher_template" : "",
		"assistshowspatchername" : 0,
		"boxes" : [ 			{
				"box" : 				{
					"id" : "obj-10",
					"maxclass" : "newobj",
					"numinlets" : 0,
					"numoutlets" : 1,
					"outlettype" : [ "" ],
					"patching_rect" : [ 802.0, 43.0, 28.0, 22.0 ],
					"text" : "in 3"
				}

			}
, 			{
				"box" : 				{
					"id" : "obj-7",
					"maxclass" : "newobj",
					"numinlets" : 1,
					"numoutlets" : 0,
					"patching_rect" : [ 607.0, 396.0, 35.0, 22.0 ],
					"text" : "out 4"
				}

			}
, 			{
				"box" : 				{
					"id" : "obj-6",
					"maxclass" : "newobj",
					"numinlets" : 1,
					"numoutlets" : 0,
					"patching_rect" : [ 424.0, 399.0, 35.0, 22.0 ],
					"text" : "out 3"
				}

			}
, 			{
				"box" : 				{
					"id" : "obj-3",
					"maxclass" : "newobj",
					"numinlets" : 1,
					"numoutlets" : 0,
					"patching_rect" : [ 235.0, 398.0, 35.0, 22.0 ],
					"text" : "out 2"
				}

			}
, 			{
				"box" : 				{
					"code" : "// Initialize persistent variables\r\nHistory ecc(0.5);\r\nHistory period(20);\r\nHistory semimaj(0);\r\nHistory radius(0);\r\nHistory xpos(0);\r\nHistory ypos(0);\r\nHistory thetanorm(0);\r\nHistory countSamp(0);\r\nHistory maxSamp(0);\r\n//History maxThetaNorm(0);\r\n//History realThetaNorm(0);\r\n\r\n// Convert period\r\n\r\ntoggleVar = in3;\r\n\r\n\r\nif (change(in2) != 0) {\r\n\t// Could eventually add a condition here that y=0 and x is positive\r\n\t//so that eccentricity changes only happen\r\n\t// when the particle is at start oto preserve rhythm\r\n\t// if (y==0 && x>0)\r\n\tecc = in2;\r\n\t// the semi major axis only depends on the eccentricity\r\n\tsemimaj = pow(PI, -2) * pow((1-pow(ecc, 2)), -4);\t// Confirmed\r\n\tradius = semimaj;\r\n\txpos = semimaj;\r\n}\r\nif (change(in1) != 0) {\r\n\tperiod = ((0.159)/(in1/1000.0));\r\n}\r\n\r\nthetadot = 0;\r\nvmag = 0;\r\nif (in3 == 1) {\r\n\r\n// Loop\r\n// Calculate velocities\r\nvmag = 2 * PI * period * sqrt(pow(semimaj, 3)*((2/radius)-(1/semimaj)));\t//Confirmed\r\nthetadot = (vmag / radius);\r\n// Increment/update location\r\nthetanorm = thetanorm + thetadot / SAMPLERATE;\r\n//realThetaNorm = thetanorm  / (1.01 -0.568*ecc +2.82*pow(ecc, 2) -1.74*pow(ecc, 3));\r\ncountSamp = countSamp + 1;\r\nif (thetanorm > 1) {\r\n\tthetanorm = 1;\r\n}\r\nif (countSamp >= (in1/1000.)*SAMPLERATE) {\r\n\t//maxThetaNorm = realThetaNorm;\r\n\tthetanorm = 0;\r\n\t//realThetaNorm = 0;\r\n\tmaxSamp = countSamp;\r\n\tcountSamp = 0;\r\n}\r\nradius = semimaj*(1-pow(ecc, 2))/(1+ecc*cos(thetanorm*2*PI));\r\nxpos = radius*cos(thetanorm*2*PI);\r\nypos = radius*sin(thetanorm*2*PI);\r\n\r\n}\r\n\r\n\r\n//out1 = maxThetaNorm;\r\nout1 = thetanorm;\r\nout2 = thetadot;\r\nout3 = vmag;\r\nout4 = radius;",
					"fontface" : 0,
					"fontname" : "<Monospaced>",
					"fontsize" : 12.0,
					"id" : "obj-5",
					"maxclass" : "codebox",
					"numinlets" : 3,
					"numoutlets" : 4,
					"outlettype" : [ "", "", "", "" ],
					"patching_rect" : [ 50.0, 87.0, 771.0, 252.0 ]
				}

			}
, 			{
				"box" : 				{
					"id" : "obj-1",
					"maxclass" : "newobj",
					"numinlets" : 0,
					"numoutlets" : 1,
					"outlettype" : [ "" ],
					"patching_rect" : [ 50.0, 14.0, 28.0, 22.0 ],
					"text" : "in 1"
				}

			}
, 			{
				"box" : 				{
					"id" : "obj-2",
					"maxclass" : "newobj",
					"numinlets" : 0,
					"numoutlets" : 1,
					"outlettype" : [ "" ],
					"patching_rect" : [ 426.0, 25.0, 28.0, 22.0 ],
					"text" : "in 2"
				}

			}
, 			{
				"box" : 				{
					"id" : "obj-4",
					"maxclass" : "newobj",
					"numinlets" : 1,
					"numoutlets" : 0,
					"patching_rect" : [ 54.0, 398.0, 35.0, 22.0 ],
					"text" : "out 1"
				}

			}
 ],
		"lines" : [ 			{
				"patchline" : 				{
					"destination" : [ "obj-5", 0 ],
					"source" : [ "obj-1", 0 ]
				}

			}
, 			{
				"patchline" : 				{
					"destination" : [ "obj-5", 2 ],
					"source" : [ "obj-10", 0 ]
				}

			}
, 			{
				"patchline" : 				{
					"destination" : [ "obj-5", 1 ],
					"source" : [ "obj-2", 0 ]
				}

			}
, 			{
				"patchline" : 				{
					"destination" : [ "obj-3", 0 ],
					"source" : [ "obj-5", 1 ]
				}

			}
, 			{
				"patchline" : 				{
					"destination" : [ "obj-4", 0 ],
					"source" : [ "obj-5", 0 ]
				}

			}
, 			{
				"patchline" : 				{
					"destination" : [ "obj-6", 0 ],
					"source" : [ "obj-5", 2 ]
				}

			}
, 			{
				"patchline" : 				{
					"destination" : [ "obj-7", 0 ],
					"source" : [ "obj-5", 3 ]
				}

			}
 ]
	}

}
